<svg width="16" height="16" viewBox="0 0 16 16" fill="none" xmlns="http://www.w3.org/2000/svg">
<path d="M11.988 12.4834C11.5222 11.8666 10.9195 11.3665 10.2275 11.0223C9.53544 10.6781 8.77293 10.4993 8.00003 10.5C7.22713 10.4993 6.46462 10.6781 5.77257 11.0223C5.08053 11.3665 4.47786 11.8666 4.01203 12.4834M11.988 12.4834C12.897 11.6748 13.5381 10.6091 13.8275 9.42744C14.1169 8.2458 14.0402 7.00411 13.6077 5.86703C13.1751 4.72996 12.4072 3.75123 11.4056 3.06065C10.4041 2.37006 9.21626 2.00024 7.9997 2.00024C6.78314 2.00024 5.59532 2.37006 4.59377 3.06065C3.59221 3.75123 2.82425 4.72996 2.39172 5.86703C1.95919 7.00411 1.88253 8.2458 2.17191 9.42744C2.46129 10.6091 3.10303 11.6748 4.01203 12.4834M11.988 12.4834C10.8907 13.4622 9.47045 14.0021 8.00003 14C6.52938 14.0023 5.10952 13.4623 4.01203 12.4834M10 6.50005C10 7.03048 9.78932 7.53919 9.41424 7.91426C9.03917 8.28933 8.53046 8.50005 8.00003 8.50005C7.4696 8.50005 6.96089 8.28933 6.58582 7.91426C6.21074 7.53919 6.00003 7.03048 6.00003 6.50005C6.00003 5.96961 6.21074 5.46091 6.58582 5.08583C6.96089 4.71076 7.4696 4.50005 8.00003 4.50005C8.53046 4.50005 9.03917 4.71076 9.41424 5.08583C9.78932 5.46091 10 5.96961 10 6.50005Z" stroke="black" stroke-width="1.5" stroke-linecap="round" stroke-linejoin="round"/>
</svg>
