<svg width="18" height="18" viewBox="0 0 18 18" fill="none" xmlns="http://www.w3.org/2000/svg">
<path d="M3.04558 7.11476C2.83398 9.04969 2.7079 10.9966 2.66785 12.9474C4.88253 14.0524 7.00302 15.4096 9 17C10.9972 15.4095 13.118 14.0524 15.3329 12.9474C15.2928 10.9966 15.1668 9.04969 14.9552 7.11476M14.9552 7.11476C15.6283 6.84458 16.3107 6.59462 17 6.36672C14.4894 4.26437 11.8095 2.46656 9 1C6.19049 2.46686 3.51055 4.26499 1 6.36764C1.6872 6.59428 2.36906 6.84341 3.04481 7.11476C5.0978 7.93925 7.08974 8.96652 9 10.1859C10.91 8.96651 12.9024 7.93924 14.9552 7.11476ZM4.96115 11.5745C5.11417 11.5745 5.26093 11.5019 5.36914 11.3726C5.47734 11.2433 5.53813 11.068 5.53813 10.8852C5.53813 10.7025 5.47734 10.5271 5.36914 10.3979C5.26093 10.2686 5.11417 10.196 4.96115 10.196C4.80813 10.196 4.66137 10.2686 4.55316 10.3979C4.44496 10.5271 4.38417 10.7025 4.38417 10.8852C4.38417 11.068 4.44496 11.2433 4.55316 11.3726C4.66137 11.5019 4.80813 11.5745 4.96115 11.5745ZM4.96115 11.5745V8.19729C6.26646 7.2281 7.61471 6.34399 9 5.54885M3.60948 16.1628C4.03873 15.6513 4.37912 15.0435 4.61109 14.3744C4.84305 13.7053 4.96202 12.9879 4.96115 12.2637V10.8852" stroke="black" stroke-width="1.5" stroke-linecap="round" stroke-linejoin="round"/>
</svg>
